<?xml version="1.0" encoding="UTF-8" standalone="no"?>
<!DOCTYPE svg PUBLIC "-//W3C//DTD SVG 1.1//EN"
 "http://www.w3.org/Graphics/SVG/1.1/DTD/svg11.dtd">
<!-- Generated by graphviz version 12.2.1 (0)
 -->
<!-- Pages: 1 -->
<svg width="461pt" height="332pt"
 viewBox="0.00 0.00 461.46 332.00" xmlns="http://www.w3.org/2000/svg" xmlns:xlink="http://www.w3.org/1999/xlink">
<g id="graph0" class="graph" transform="scale(1 1) rotate(0) translate(4 328)">
<polygon fill="white" stroke="none" points="-4,4 -4,-328 457.46,-328 457.46,4 -4,4"/>
<!-- 0 -->
<g id="node1" class="node">
<title>0</title>
<polygon fill="none" stroke="black" points="142.71,-324 88.71,-324 88.71,-288 142.71,-288 142.71,-324"/>
<text text-anchor="middle" x="115.71" y="-301.32" font-family="Times,serif" font-size="14.00">db</text>
</g>
<!-- 1 -->
<g id="node2" class="node">
<title>1</title>
<polygon fill="none" stroke="black" points="186.33,-180 117.08,-180 117.08,-144 186.33,-144 186.33,-180"/>
<text text-anchor="middle" x="151.71" y="-157.32" font-family="Times,serif" font-size="14.00">db&#45;core</text>
</g>
<!-- 0&#45;&gt;1 -->
<g id="edge1" class="edge">
<title>0&#45;&gt;1</title>
<path fill="none" stroke="black" d="M124.57,-287.76C129.44,-277.6 135.19,-264.35 138.71,-252 144.33,-232.23 147.61,-209.26 149.47,-191.61"/>
<polygon fill="black" stroke="black" points="152.93,-192.14 150.39,-181.85 145.96,-191.48 152.93,-192.14"/>
</g>
<!-- 2 -->
<g id="node3" class="node">
<title>2</title>
<polygon fill="none" stroke="black" points="144.46,-108 84.96,-108 84.96,-72 144.46,-72 144.46,-108"/>
<text text-anchor="middle" x="114.71" y="-85.33" font-family="Times,serif" font-size="14.00">model</text>
</g>
<!-- 0&#45;&gt;2 -->
<g id="edge4" class="edge">
<title>0&#45;&gt;2</title>
<path fill="none" stroke="black" d="M88.27,-299.88C62.69,-293.5 25.98,-279.83 8.71,-252 -21.89,-202.7 37.58,-146.33 79.16,-115.08"/>
<polygon fill="black" stroke="black" points="81.01,-118.06 87.01,-109.32 76.88,-112.41 81.01,-118.06"/>
</g>
<!-- 5 -->
<g id="node6" class="node">
<title>5</title>
<polygon fill="none" stroke="black" points="129.71,-252 17.71,-252 17.71,-216 129.71,-216 129.71,-252"/>
<text text-anchor="middle" x="73.71" y="-229.32" font-family="Times,serif" font-size="14.00">db&#45;impl&#45;mock</text>
</g>
<!-- 0&#45;&gt;5 -->
<g id="edge2" class="edge">
<title>0&#45;&gt;5</title>
<path fill="none" stroke="black" d="M105.33,-287.7C100.65,-279.9 95.01,-270.51 89.81,-261.83"/>
<polygon fill="black" stroke="black" points="92.9,-260.18 84.75,-253.4 86.89,-263.78 92.9,-260.18"/>
</g>
<!-- 6 -->
<g id="node7" class="node">
<title>6</title>
<polygon fill="none" stroke="black" points="322.08,-252 185.33,-252 185.33,-216 322.08,-216 322.08,-252"/>
<text text-anchor="middle" x="253.71" y="-229.32" font-family="Times,serif" font-size="14.00">db&#45;impl&#45;postgres</text>
</g>
<!-- 0&#45;&gt;6 -->
<g id="edge3" class="edge">
<title>0&#45;&gt;6</title>
<path fill="none" stroke="black" d="M142.97,-291.17C161.89,-281.57 187.52,-268.58 209.35,-257.5"/>
<polygon fill="black" stroke="black" points="210.71,-260.73 218.05,-253.09 207.55,-254.49 210.71,-260.73"/>
</g>
<!-- 1&#45;&gt;2 -->
<g id="edge5" class="edge">
<title>1&#45;&gt;2</title>
<path fill="none" stroke="black" d="M142.56,-143.7C138.48,-135.98 133.58,-126.71 129.04,-118.11"/>
<polygon fill="black" stroke="black" points="132.22,-116.65 124.46,-109.44 126.04,-119.92 132.22,-116.65"/>
</g>
<!-- 3 -->
<g id="node4" class="node">
<title>3</title>
<polygon fill="none" stroke="#00cd00" points="113.21,-36 4.21,-36 4.21,0 113.21,0 113.21,-36"/>
<text text-anchor="middle" x="58.71" y="-13.32" font-family="Times,serif" font-size="14.00">model&#45;derive</text>
</g>
<!-- 2&#45;&gt;3 -->
<g id="edge6" class="edge">
<title>2&#45;&gt;3</title>
<path fill="none" stroke="#00cd00" d="M100.87,-71.7C94.42,-63.64 86.62,-53.89 79.49,-44.98"/>
<polygon fill="#00cd00" stroke="#00cd00" points="82.32,-42.91 73.34,-37.29 76.85,-47.28 82.32,-42.91"/>
</g>
<!-- 4 -->
<g id="node5" class="node">
<title>4</title>
<polygon fill="none" stroke="black" points="211.96,-36 131.46,-36 131.46,0 211.96,0 211.96,-36"/>
<text text-anchor="middle" x="171.71" y="-13.32" font-family="Times,serif" font-size="14.00">record&#45;id</text>
</g>
<!-- 2&#45;&gt;4 -->
<g id="edge7" class="edge">
<title>2&#45;&gt;4</title>
<path fill="none" stroke="black" d="M128.8,-71.7C135.36,-63.64 143.29,-53.89 150.55,-44.98"/>
<polygon fill="black" stroke="black" points="153.22,-47.24 156.82,-37.28 147.8,-42.82 153.22,-47.24"/>
</g>
<!-- 5&#45;&gt;1 -->
<g id="edge8" class="edge">
<title>5&#45;&gt;1</title>
<path fill="none" stroke="black" d="M92.99,-215.7C102.36,-207.28 113.8,-197.02 124.08,-187.79"/>
<polygon fill="black" stroke="black" points="126.15,-190.64 131.25,-181.36 121.47,-185.43 126.15,-190.64"/>
</g>
<!-- 5&#45;&gt;2 -->
<g id="edge9" class="edge">
<title>5&#45;&gt;2</title>
<path fill="none" stroke="black" d="M78.74,-215.59C85.69,-191.5 98.32,-147.75 106.61,-119.03"/>
<polygon fill="black" stroke="black" points="109.94,-120.14 109.35,-109.57 103.21,-118.2 109.94,-120.14"/>
</g>
<!-- 6&#45;&gt;1 -->
<g id="edge10" class="edge">
<title>6&#45;&gt;1</title>
<path fill="none" stroke="black" d="M228.23,-215.52C215.48,-206.76 199.86,-196.04 186.06,-186.58"/>
<polygon fill="black" stroke="black" points="188.33,-183.89 178.11,-181.12 184.37,-189.66 188.33,-183.89"/>
</g>
<!-- 6&#45;&gt;2 -->
<g id="edge11" class="edge">
<title>6&#45;&gt;2</title>
<path fill="none" stroke="black" d="M245.26,-215.77C235.3,-196.66 217.34,-165.67 195.71,-144 183.55,-131.82 168.17,-120.91 154.08,-112.2"/>
<polygon fill="black" stroke="black" points="156.26,-109.43 145.88,-107.3 152.67,-115.44 156.26,-109.43"/>
</g>
<!-- 7 -->
<g id="node8" class="node">
<title>7</title>
<polygon fill="none" stroke="black" points="449.33,-324 344.08,-324 344.08,-288 449.33,-288 449.33,-324"/>
<text text-anchor="middle" x="396.71" y="-301.32" font-family="Times,serif" font-size="14.00">storage&#45;core</text>
</g>
<!-- 8 -->
<g id="node9" class="node">
<title>8</title>
<polygon fill="none" stroke="black" points="453.46,-252 339.96,-252 339.96,-216 453.46,-216 453.46,-252"/>
<text text-anchor="middle" x="396.71" y="-229.32" font-family="Times,serif" font-size="14.00">storage&#45;types</text>
</g>
<!-- 7&#45;&gt;8 -->
<g id="edge12" class="edge">
<title>7&#45;&gt;8</title>
<path fill="none" stroke="black" d="M396.71,-287.7C396.71,-280.41 396.71,-271.73 396.71,-263.54"/>
<polygon fill="black" stroke="black" points="400.21,-263.62 396.71,-253.62 393.21,-263.62 400.21,-263.62"/>
</g>
</g>
</svg>
