<?xml version="1.0" encoding="UTF-8" standalone="no"?>
<!DOCTYPE svg PUBLIC "-//W3C//DTD SVG 1.1//EN"
 "http://www.w3.org/Graphics/SVG/1.1/DTD/svg11.dtd">
<!-- Generated by graphviz version 12.2.1 (0)
 -->
<!-- Pages: 1 -->
<svg width="627pt" height="332pt"
 viewBox="0.00 0.00 627.20 332.00" xmlns="http://www.w3.org/2000/svg" xmlns:xlink="http://www.w3.org/1999/xlink">
<g id="graph0" class="graph" transform="scale(1 1) rotate(0) translate(4 328)">
<polygon fill="white" stroke="none" points="-4,4 -4,-328 623.2,-328 623.2,4 -4,4"/>
<!-- 0 -->
<g id="node1" class="node">
<title>0</title>
<polygon fill="none" stroke="black" points="142.7,-324 88.7,-324 88.7,-288 142.7,-288 142.7,-324"/>
<text text-anchor="middle" x="115.7" y="-301.32" font-family="Times,serif" font-size="14.00">db</text>
</g>
<!-- 1 -->
<g id="node2" class="node">
<title>1</title>
<polygon fill="none" stroke="black" points="182.32,-180 113.07,-180 113.07,-144 182.32,-144 182.32,-180"/>
<text text-anchor="middle" x="147.7" y="-157.32" font-family="Times,serif" font-size="14.00">db&#45;core</text>
</g>
<!-- 0&#45;&gt;1 -->
<g id="edge1" class="edge">
<title>0&#45;&gt;1</title>
<path fill="none" stroke="black" d="M124.77,-287.82C129.71,-277.67 135.46,-264.42 138.7,-252 143.85,-232.22 146.09,-209.25 147.04,-191.6"/>
<polygon fill="black" stroke="black" points="150.53,-191.99 147.45,-181.85 143.53,-191.7 150.53,-191.99"/>
</g>
<!-- 2 -->
<g id="node3" class="node">
<title>2</title>
<polygon fill="none" stroke="black" points="145.45,-108 85.95,-108 85.95,-72 145.45,-72 145.45,-108"/>
<text text-anchor="middle" x="115.7" y="-85.33" font-family="Times,serif" font-size="14.00">model</text>
</g>
<!-- 0&#45;&gt;2 -->
<g id="edge4" class="edge">
<title>0&#45;&gt;2</title>
<path fill="none" stroke="black" d="M88.25,-299.88C62.68,-293.5 25.97,-279.83 8.7,-252 -21.99,-202.56 37.98,-146.23 79.87,-115.03"/>
<polygon fill="black" stroke="black" points="81.76,-117.99 87.8,-109.29 77.65,-112.32 81.76,-117.99"/>
</g>
<!-- 5 -->
<g id="node6" class="node">
<title>5</title>
<polygon fill="none" stroke="black" points="129.7,-252 17.7,-252 17.7,-216 129.7,-216 129.7,-252"/>
<text text-anchor="middle" x="73.7" y="-229.32" font-family="Times,serif" font-size="14.00">db&#45;impl&#45;mock</text>
</g>
<!-- 0&#45;&gt;5 -->
<g id="edge2" class="edge">
<title>0&#45;&gt;5</title>
<path fill="none" stroke="black" d="M105.31,-287.7C100.64,-279.9 95,-270.51 89.79,-261.83"/>
<polygon fill="black" stroke="black" points="92.88,-260.18 84.74,-253.4 86.88,-263.78 92.88,-260.18"/>
</g>
<!-- 6 -->
<g id="node7" class="node">
<title>6</title>
<polygon fill="none" stroke="black" points="322.07,-252 185.32,-252 185.32,-216 322.07,-216 322.07,-252"/>
<text text-anchor="middle" x="253.7" y="-229.32" font-family="Times,serif" font-size="14.00">db&#45;impl&#45;postgres</text>
</g>
<!-- 0&#45;&gt;6 -->
<g id="edge3" class="edge">
<title>0&#45;&gt;6</title>
<path fill="none" stroke="black" d="M142.96,-291.17C161.88,-281.57 187.5,-268.58 209.34,-257.5"/>
<polygon fill="black" stroke="black" points="210.7,-260.73 218.04,-253.09 207.53,-254.49 210.7,-260.73"/>
</g>
<!-- 1&#45;&gt;2 -->
<g id="edge5" class="edge">
<title>1&#45;&gt;2</title>
<path fill="none" stroke="black" d="M139.79,-143.7C136.3,-136.07 132.12,-126.92 128.22,-118.4"/>
<polygon fill="black" stroke="black" points="131.49,-117.12 124.14,-109.48 125.12,-120.03 131.49,-117.12"/>
</g>
<!-- 3 -->
<g id="node4" class="node">
<title>3</title>
<polygon fill="none" stroke="#00cd00" points="114.2,-36 5.2,-36 5.2,0 114.2,0 114.2,-36"/>
<text text-anchor="middle" x="59.7" y="-13.32" font-family="Times,serif" font-size="14.00">model&#45;derive</text>
</g>
<!-- 2&#45;&gt;3 -->
<g id="edge6" class="edge">
<title>2&#45;&gt;3</title>
<path fill="none" stroke="#00cd00" d="M101.85,-71.7C95.41,-63.64 87.61,-53.89 80.48,-44.98"/>
<polygon fill="#00cd00" stroke="#00cd00" points="83.31,-42.91 74.33,-37.29 77.84,-47.28 83.31,-42.91"/>
</g>
<!-- 4 -->
<g id="node5" class="node">
<title>4</title>
<polygon fill="none" stroke="black" points="212.95,-36 132.45,-36 132.45,0 212.95,0 212.95,-36"/>
<text text-anchor="middle" x="172.7" y="-13.32" font-family="Times,serif" font-size="14.00">record&#45;id</text>
</g>
<!-- 2&#45;&gt;4 -->
<g id="edge7" class="edge">
<title>2&#45;&gt;4</title>
<path fill="none" stroke="black" d="M129.79,-71.7C136.34,-63.64 144.28,-53.89 151.54,-44.98"/>
<polygon fill="black" stroke="black" points="154.21,-47.24 157.81,-37.28 148.78,-42.82 154.21,-47.24"/>
</g>
<!-- 5&#45;&gt;1 -->
<g id="edge8" class="edge">
<title>5&#45;&gt;1</title>
<path fill="none" stroke="black" d="M91.99,-215.7C100.79,-207.37 111.52,-197.22 121.2,-188.07"/>
<polygon fill="black" stroke="black" points="123.4,-190.8 128.26,-181.39 118.59,-185.72 123.4,-190.8"/>
</g>
<!-- 5&#45;&gt;2 -->
<g id="edge9" class="edge">
<title>5&#45;&gt;2</title>
<path fill="none" stroke="black" d="M78.85,-215.59C85.97,-191.5 98.91,-147.75 107.4,-119.03"/>
<polygon fill="black" stroke="black" points="110.73,-120.14 110.21,-109.56 104.01,-118.16 110.73,-120.14"/>
</g>
<!-- 6&#45;&gt;1 -->
<g id="edge10" class="edge">
<title>6&#45;&gt;1</title>
<path fill="none" stroke="black" d="M227.22,-215.52C213.97,-206.76 197.73,-196.04 183.4,-186.58"/>
<polygon fill="black" stroke="black" points="185.37,-183.68 175.1,-181.09 181.51,-189.53 185.37,-183.68"/>
</g>
<!-- 6&#45;&gt;2 -->
<g id="edge11" class="edge">
<title>6&#45;&gt;2</title>
<path fill="none" stroke="black" d="M244.09,-215.59C233.07,-196.6 213.66,-165.98 191.7,-144 180.82,-133.12 167.47,-122.97 155,-114.53"/>
<polygon fill="black" stroke="black" points="157.25,-111.82 146.97,-109.25 153.4,-117.67 157.25,-111.82"/>
</g>
<!-- 7 -->
<g id="node8" class="node">
<title>7</title>
<polygon fill="none" stroke="black" points="275.7,-324 221.7,-324 221.7,-288 275.7,-288 275.7,-324"/>
<text text-anchor="middle" x="248.7" y="-301.32" font-family="Times,serif" font-size="14.00">slug</text>
</g>
<!-- 8 -->
<g id="node9" class="node">
<title>8</title>
<polygon fill="none" stroke="black" points="424.7,-252 354.7,-252 354.7,-216 424.7,-216 424.7,-252"/>
<text text-anchor="middle" x="389.7" y="-229.32" font-family="Times,serif" font-size="14.00">storage</text>
</g>
<!-- 9 -->
<g id="node10" class="node">
<title>9</title>
<polygon fill="none" stroke="black" points="442.32,-108 337.07,-108 337.07,-72 442.32,-72 442.32,-108"/>
<text text-anchor="middle" x="389.7" y="-85.33" font-family="Times,serif" font-size="14.00">storage&#45;core</text>
</g>
<!-- 8&#45;&gt;9 -->
<g id="edge12" class="edge">
<title>8&#45;&gt;9</title>
<path fill="none" stroke="black" d="M354.52,-222.85C333.73,-214.84 309.11,-201.37 296.7,-180 288.66,-166.17 288.66,-157.83 296.7,-144 304.06,-131.32 315.72,-121.43 328.33,-113.8"/>
<polygon fill="black" stroke="black" points="329.71,-117.04 336.77,-109.14 326.32,-110.91 329.71,-117.04"/>
</g>
<!-- 11 -->
<g id="node12" class="node">
<title>11</title>
<polygon fill="none" stroke="black" points="474.2,-180 305.2,-180 305.2,-144 474.2,-144 474.2,-180"/>
<text text-anchor="middle" x="389.7" y="-157.32" font-family="Times,serif" font-size="14.00">storage&#45;impl&#45;memory</text>
</g>
<!-- 8&#45;&gt;11 -->
<g id="edge13" class="edge">
<title>8&#45;&gt;11</title>
<path fill="none" stroke="black" d="M389.7,-215.7C389.7,-208.41 389.7,-199.73 389.7,-191.54"/>
<polygon fill="black" stroke="black" points="393.2,-191.62 389.7,-181.62 386.2,-191.62 393.2,-191.62"/>
</g>
<!-- 12 -->
<g id="node13" class="node">
<title>12</title>
<polygon fill="none" stroke="black" points="619.2,-180 492.2,-180 492.2,-144 619.2,-144 619.2,-180"/>
<text text-anchor="middle" x="555.7" y="-157.32" font-family="Times,serif" font-size="14.00">storage&#45;impl&#45;s3</text>
</g>
<!-- 8&#45;&gt;12 -->
<g id="edge14" class="edge">
<title>8&#45;&gt;12</title>
<path fill="none" stroke="black" d="M424.9,-218.15C447.9,-208.45 478.34,-195.62 504.06,-184.78"/>
<polygon fill="black" stroke="black" points="505.14,-188.12 512.99,-181.01 502.42,-181.67 505.14,-188.12"/>
</g>
<!-- 10 -->
<g id="node11" class="node">
<title>10</title>
<polygon fill="none" stroke="black" points="446.45,-36 332.95,-36 332.95,0 446.45,0 446.45,-36"/>
<text text-anchor="middle" x="389.7" y="-13.32" font-family="Times,serif" font-size="14.00">storage&#45;types</text>
</g>
<!-- 9&#45;&gt;10 -->
<g id="edge15" class="edge">
<title>9&#45;&gt;10</title>
<path fill="none" stroke="black" d="M389.7,-71.7C389.7,-64.41 389.7,-55.73 389.7,-47.54"/>
<polygon fill="black" stroke="black" points="393.2,-47.62 389.7,-37.62 386.2,-47.62 393.2,-47.62"/>
</g>
<!-- 11&#45;&gt;9 -->
<g id="edge16" class="edge">
<title>11&#45;&gt;9</title>
<path fill="none" stroke="black" d="M389.7,-143.7C389.7,-136.41 389.7,-127.73 389.7,-119.54"/>
<polygon fill="black" stroke="black" points="393.2,-119.62 389.7,-109.62 386.2,-119.62 393.2,-119.62"/>
</g>
<!-- 12&#45;&gt;9 -->
<g id="edge17" class="edge">
<title>12&#45;&gt;9</title>
<path fill="none" stroke="black" d="M514.24,-143.52C492.17,-134.21 464.82,-122.68 441.38,-112.79"/>
<polygon fill="black" stroke="black" points="442.88,-109.63 432.31,-108.97 440.16,-116.08 442.88,-109.63"/>
</g>
<!-- 13 -->
<g id="node14" class="node">
<title>13</title>
<polygon fill="none" stroke="black" points="440.82,-324 338.57,-324 338.57,-288 440.82,-288 440.82,-324"/>
<text text-anchor="middle" x="389.7" y="-301.32" font-family="Times,serif" font-size="14.00">storage&#45;test</text>
</g>
<!-- 13&#45;&gt;8 -->
<g id="edge18" class="edge">
<title>13&#45;&gt;8</title>
<path fill="none" stroke="black" d="M389.7,-287.7C389.7,-280.41 389.7,-271.73 389.7,-263.54"/>
<polygon fill="black" stroke="black" points="393.2,-263.62 389.7,-253.62 386.2,-263.62 393.2,-263.62"/>
</g>
</g>
</svg>
