<?xml version="1.0" encoding="UTF-8" standalone="no"?>
<!DOCTYPE svg PUBLIC "-//W3C//DTD SVG 1.1//EN"
 "http://www.w3.org/Graphics/SVG/1.1/DTD/svg11.dtd">
<!-- Generated by graphviz version 12.2.1 (0)
 -->
<!-- Pages: 1 -->
<svg width="697pt" height="332pt"
 viewBox="0.00 0.00 696.94 332.00" xmlns="http://www.w3.org/2000/svg" xmlns:xlink="http://www.w3.org/1999/xlink">
<g id="graph0" class="graph" transform="scale(1 1) rotate(0) translate(4 328)">
<polygon fill="white" stroke="none" points="-4,4 -4,-328 692.94,-328 692.94,4 -4,4"/>
<!-- 0 -->
<g id="node1" class="node">
<title>0</title>
<polygon fill="none" stroke="black" points="67.44,-324 13.44,-324 13.44,-288 67.44,-288 67.44,-324"/>
<text text-anchor="middle" x="40.44" y="-301.32" font-family="Times,serif" font-size="14.00">belt</text>
</g>
<!-- 1 -->
<g id="node2" class="node">
<title>1</title>
<polygon fill="none" stroke="black" points="139.44,-324 85.44,-324 85.44,-288 139.44,-288 139.44,-324"/>
<text text-anchor="middle" x="112.44" y="-301.32" font-family="Times,serif" font-size="14.00">db</text>
</g>
<!-- 2 -->
<g id="node3" class="node">
<title>2</title>
<polygon fill="none" stroke="black" points="184.06,-180 114.81,-180 114.81,-144 184.06,-144 184.06,-180"/>
<text text-anchor="middle" x="149.44" y="-157.32" font-family="Times,serif" font-size="14.00">db&#45;core</text>
</g>
<!-- 1&#45;&gt;2 -->
<g id="edge1" class="edge">
<title>1&#45;&gt;2</title>
<path fill="none" stroke="black" d="M121.25,-287.75C126.1,-277.58 131.85,-264.33 135.44,-252 141.18,-232.23 144.72,-209.26 146.8,-191.61"/>
<polygon fill="black" stroke="black" points="150.26,-192.17 147.86,-181.85 143.3,-191.41 150.26,-192.17"/>
</g>
<!-- 3 -->
<g id="node4" class="node">
<title>3</title>
<polygon fill="none" stroke="black" points="143.19,-108 83.69,-108 83.69,-72 143.19,-72 143.19,-108"/>
<text text-anchor="middle" x="113.44" y="-85.33" font-family="Times,serif" font-size="14.00">model</text>
</g>
<!-- 1&#45;&gt;3 -->
<g id="edge4" class="edge">
<title>1&#45;&gt;3</title>
<path fill="none" stroke="black" d="M84.99,-291.84C53.68,-276.76 6.6,-253.88 5.44,-252 -3,-238.41 -0.15,-231 5.44,-216 20.71,-174.95 56.2,-138.39 82.35,-115.57"/>
<polygon fill="black" stroke="black" points="84.31,-118.5 89.66,-109.35 79.78,-113.16 84.31,-118.5"/>
</g>
<!-- 6 -->
<g id="node7" class="node">
<title>6</title>
<polygon fill="none" stroke="black" points="126.44,-252 14.44,-252 14.44,-216 126.44,-216 126.44,-252"/>
<text text-anchor="middle" x="70.44" y="-229.32" font-family="Times,serif" font-size="14.00">db&#45;impl&#45;mock</text>
</g>
<!-- 1&#45;&gt;6 -->
<g id="edge2" class="edge">
<title>1&#45;&gt;6</title>
<path fill="none" stroke="black" d="M102.05,-287.7C97.37,-279.9 91.74,-270.51 86.53,-261.83"/>
<polygon fill="black" stroke="black" points="89.62,-260.18 81.48,-253.4 83.62,-263.78 89.62,-260.18"/>
</g>
<!-- 7 -->
<g id="node8" class="node">
<title>7</title>
<polygon fill="none" stroke="black" points="318.81,-252 182.06,-252 182.06,-216 318.81,-216 318.81,-252"/>
<text text-anchor="middle" x="250.44" y="-229.32" font-family="Times,serif" font-size="14.00">db&#45;impl&#45;postgres</text>
</g>
<!-- 1&#45;&gt;7 -->
<g id="edge3" class="edge">
<title>1&#45;&gt;7</title>
<path fill="none" stroke="black" d="M139.7,-291.17C158.62,-281.57 184.24,-268.58 206.08,-257.5"/>
<polygon fill="black" stroke="black" points="207.44,-260.73 214.77,-253.09 204.27,-254.49 207.44,-260.73"/>
</g>
<!-- 2&#45;&gt;3 -->
<g id="edge5" class="edge">
<title>2&#45;&gt;3</title>
<path fill="none" stroke="black" d="M140.54,-143.7C136.57,-135.98 131.8,-126.71 127.38,-118.11"/>
<polygon fill="black" stroke="black" points="130.61,-116.74 122.92,-109.45 124.38,-119.94 130.61,-116.74"/>
</g>
<!-- 4 -->
<g id="node5" class="node">
<title>4</title>
<polygon fill="none" stroke="#00cd00" points="111.94,-36 2.94,-36 2.94,0 111.94,0 111.94,-36"/>
<text text-anchor="middle" x="57.44" y="-13.32" font-family="Times,serif" font-size="14.00">model&#45;derive</text>
</g>
<!-- 3&#45;&gt;4 -->
<g id="edge6" class="edge">
<title>3&#45;&gt;4</title>
<path fill="none" stroke="#00cd00" d="M99.59,-71.7C93.15,-63.64 85.35,-53.89 78.22,-44.98"/>
<polygon fill="#00cd00" stroke="#00cd00" points="81.04,-42.91 72.06,-37.29 75.58,-47.28 81.04,-42.91"/>
</g>
<!-- 5 -->
<g id="node6" class="node">
<title>5</title>
<polygon fill="none" stroke="black" points="210.69,-36 130.19,-36 130.19,0 210.69,0 210.69,-36"/>
<text text-anchor="middle" x="170.44" y="-13.32" font-family="Times,serif" font-size="14.00">record&#45;id</text>
</g>
<!-- 3&#45;&gt;5 -->
<g id="edge7" class="edge">
<title>3&#45;&gt;5</title>
<path fill="none" stroke="black" d="M127.53,-71.7C134.08,-63.64 142.02,-53.89 149.28,-44.98"/>
<polygon fill="black" stroke="black" points="151.95,-47.24 155.55,-37.28 146.52,-42.82 151.95,-47.24"/>
</g>
<!-- 6&#45;&gt;2 -->
<g id="edge8" class="edge">
<title>6&#45;&gt;2</title>
<path fill="none" stroke="black" d="M89.96,-215.7C99.46,-207.28 111.04,-197.02 121.46,-187.79"/>
<polygon fill="black" stroke="black" points="123.56,-190.6 128.73,-181.35 118.92,-185.36 123.56,-190.6"/>
</g>
<!-- 6&#45;&gt;3 -->
<g id="edge9" class="edge">
<title>6&#45;&gt;3</title>
<path fill="none" stroke="black" d="M75.71,-215.59C83,-191.5 96.25,-147.75 104.95,-119.03"/>
<polygon fill="black" stroke="black" points="108.27,-120.14 107.82,-109.56 101.57,-118.12 108.27,-120.14"/>
</g>
<!-- 7&#45;&gt;2 -->
<g id="edge10" class="edge">
<title>7&#45;&gt;2</title>
<path fill="none" stroke="black" d="M225.21,-215.52C212.58,-206.76 197.11,-196.04 183.45,-186.58"/>
<polygon fill="black" stroke="black" points="185.8,-183.94 175.58,-181.12 181.81,-189.7 185.8,-183.94"/>
</g>
<!-- 7&#45;&gt;3 -->
<g id="edge11" class="edge">
<title>7&#45;&gt;3</title>
<path fill="none" stroke="black" d="M242.18,-215.78C232.43,-196.68 214.81,-165.7 193.44,-144 181.68,-132.06 166.81,-121.32 153.09,-112.68"/>
<polygon fill="black" stroke="black" points="155.02,-109.76 144.66,-107.56 151.39,-115.74 155.02,-109.76"/>
</g>
<!-- 8 -->
<g id="node9" class="node">
<title>8</title>
<polygon fill="none" stroke="black" points="288.44,-324 234.44,-324 234.44,-288 288.44,-288 288.44,-324"/>
<text text-anchor="middle" x="261.44" y="-301.32" font-family="Times,serif" font-size="14.00">slug</text>
</g>
<!-- 9 -->
<g id="node10" class="node">
<title>9</title>
<polygon fill="none" stroke="black" points="494.44,-324 424.44,-324 424.44,-288 494.44,-288 494.44,-324"/>
<text text-anchor="middle" x="459.44" y="-301.32" font-family="Times,serif" font-size="14.00">storage</text>
</g>
<!-- 10 -->
<g id="node11" class="node">
<title>10</title>
<polygon fill="none" stroke="black" points="512.06,-180 406.81,-180 406.81,-144 512.06,-144 512.06,-180"/>
<text text-anchor="middle" x="459.44" y="-157.32" font-family="Times,serif" font-size="14.00">storage&#45;core</text>
</g>
<!-- 9&#45;&gt;10 -->
<g id="edge12" class="edge">
<title>9&#45;&gt;10</title>
<path fill="none" stroke="black" d="M424.26,-294.85C403.47,-286.84 378.85,-273.37 366.44,-252 358.4,-238.17 358.4,-229.83 366.44,-216 373.8,-203.32 385.46,-193.43 398.06,-185.8"/>
<polygon fill="black" stroke="black" points="399.45,-189.04 406.51,-181.14 396.06,-182.91 399.45,-189.04"/>
</g>
<!-- 12 -->
<g id="node13" class="node">
<title>12</title>
<polygon fill="none" stroke="black" points="543.94,-252 374.94,-252 374.94,-216 543.94,-216 543.94,-252"/>
<text text-anchor="middle" x="459.44" y="-229.32" font-family="Times,serif" font-size="14.00">storage&#45;impl&#45;memory</text>
</g>
<!-- 9&#45;&gt;12 -->
<g id="edge13" class="edge">
<title>9&#45;&gt;12</title>
<path fill="none" stroke="black" d="M459.44,-287.7C459.44,-280.41 459.44,-271.73 459.44,-263.54"/>
<polygon fill="black" stroke="black" points="462.94,-263.62 459.44,-253.62 455.94,-263.62 462.94,-263.62"/>
</g>
<!-- 13 -->
<g id="node14" class="node">
<title>13</title>
<polygon fill="none" stroke="black" points="688.94,-252 561.94,-252 561.94,-216 688.94,-216 688.94,-252"/>
<text text-anchor="middle" x="625.44" y="-229.32" font-family="Times,serif" font-size="14.00">storage&#45;impl&#45;s3</text>
</g>
<!-- 9&#45;&gt;13 -->
<g id="edge14" class="edge">
<title>9&#45;&gt;13</title>
<path fill="none" stroke="black" d="M494.64,-290.15C517.64,-280.45 548.08,-267.62 573.8,-256.78"/>
<polygon fill="black" stroke="black" points="574.88,-260.12 582.73,-253.01 572.16,-253.67 574.88,-260.12"/>
</g>
<!-- 11 -->
<g id="node12" class="node">
<title>11</title>
<polygon fill="none" stroke="black" points="516.19,-108 402.69,-108 402.69,-72 516.19,-72 516.19,-108"/>
<text text-anchor="middle" x="459.44" y="-85.33" font-family="Times,serif" font-size="14.00">storage&#45;types</text>
</g>
<!-- 10&#45;&gt;11 -->
<g id="edge15" class="edge">
<title>10&#45;&gt;11</title>
<path fill="none" stroke="black" d="M459.44,-143.7C459.44,-136.41 459.44,-127.73 459.44,-119.54"/>
<polygon fill="black" stroke="black" points="462.94,-119.62 459.44,-109.62 455.94,-119.62 462.94,-119.62"/>
</g>
<!-- 12&#45;&gt;10 -->
<g id="edge16" class="edge">
<title>12&#45;&gt;10</title>
<path fill="none" stroke="black" d="M459.44,-215.7C459.44,-208.41 459.44,-199.73 459.44,-191.54"/>
<polygon fill="black" stroke="black" points="462.94,-191.62 459.44,-181.62 455.94,-191.62 462.94,-191.62"/>
</g>
<!-- 13&#45;&gt;10 -->
<g id="edge17" class="edge">
<title>13&#45;&gt;10</title>
<path fill="none" stroke="black" d="M583.97,-215.52C561.91,-206.21 534.56,-194.68 511.12,-184.79"/>
<polygon fill="black" stroke="black" points="512.62,-181.63 502.05,-180.97 509.9,-188.08 512.62,-181.63"/>
</g>
</g>
</svg>
